<svg width="180" height="180" viewBox="0 0 180 180" fill="none" xmlns="http://www.w3.org/2000/svg">
<path d="M175.991 92.4806C175.675 81.9721 166.169 74.5595 156.21 76.2903C155.551 76.4049 154.942 76.5314 154.378 76.6714C151.695 71.352 148.755 66.0741 144.847 61.5905C140.116 56.1639 134.151 50.4952 127.897 46.914C122.371 43.7494 116.267 41.6901 110.047 40.3014C104.36 39.0307 98.3551 39.6589 92.7977 39.2343C89.6429 38.9932 86.302 39.3937 83.5097 37.9123C81.1632 36.6677 80.801 35.8459 82.9369 31C79.0303 33.6865 77.3053 35.7066 76.4473 38.7652C76.154 39.8099 74.6302 35.4756 76.1268 32.4522C72.97 34.0113 71.5715 38.1604 71.0535 38.2106C69.9163 38.3228 69.3419 34.4302 69.1709 31.8964C66.78 34.3475 66.26 39.4908 66.26 39.4908C65.6701 39.7151 63.5312 34.2353 64.719 31.5548C61.2354 33.8067 62.3799 39.7265 61.2515 40.3011C59.9172 40.9808 60.4412 34.7537 52.154 32.0662C55.4025 36.2394 56.0038 37.9364 53.8474 40.8164C53.3972 41.4182 52.9403 42.0149 52.4768 42.6065C48.625 47.5188 43.2332 51.5299 39.2073 56.3019C35.2836 60.9543 31.4592 65.7858 28.5917 71.1491C27.616 72.973 26.7229 74.8396 25.9153 76.7434C25.2131 76.5648 24.5042 76.4137 23.7901 76.2903C13.8313 74.5598 4.32459 81.9721 4.00881 92.4803C3.70546 102.579 11.2718 110.359 21.41 109.695C22.0328 114.97 23.4811 121.091 25.8521 125.589C28.5413 130.691 32.1291 134.441 36.6384 138.047C39.5866 140.405 43.0256 142.193 46.5687 143.508C53.786 146.188 61.7181 147.023 69.3409 148.116C77.443 149.278 85.6392 150.086 93.8246 149.993C101.28 149.908 108.733 149.026 116.082 147.774C122.509 146.68 128.295 145.683 134.232 142.996C139.191 140.75 143.594 137.65 147.415 133.78C151.679 129.462 155.741 125.156 158.201 119.615C159.589 116.49 160.46 113.108 160.889 109.7C169.849 109.142 176.271 101.799 175.991 92.4806ZM22.779 86.2722C21.7164 91.1141 21.0032 96.532 20.9673 101.307C19.8385 101.829 18.7054 101.974 17.7772 101.557C14.5028 100.088 12.1445 97.3748 12.8245 93.1329C13.5054 88.8904 15.7958 86.967 19.2735 86.0726C20.6582 85.7167 21.8215 85.8349 22.779 86.2722ZM145.565 110.908C145.209 114.284 144.658 117.761 143.144 120.803C141.067 124.978 137.724 128.418 134.135 131.407C130.601 134.351 126.328 136.397 122.028 138.044C116.765 140.06 111.58 141.08 105.991 141.82C98.7468 142.78 91.3743 142.973 84.0781 142.544C77.1101 142.134 70.0611 141.407 63.3753 139.406C58.3944 137.916 53.5874 136.109 49.3815 133.061C45.871 130.518 42.5015 127.384 40.373 123.614C37.7171 118.909 36.0757 113.442 35.8936 108.046C35.6541 100.973 37.6512 94.559 40.459 88.0583C42.4894 83.3546 45.5501 79.0173 49.1752 75.3876C52.327 72.2333 56.0623 68.9685 60.1923 67.2732C64.2484 65.6083 68.7641 64.8228 73.147 64.9801C76.932 65.1151 80.5652 66.0875 84.0784 67.4992C86.4918 68.4703 89.3594 70.5256 91.1052 71.5388C93.2734 70.5423 95.5537 68.0872 98.171 67.0666C102.454 65.3977 107.133 64.4534 111.731 64.5321C115.617 64.5998 119.362 65.3833 122.94 66.8962C126.721 68.4947 129.797 70.9445 132.717 73.8242C135.797 76.8619 138.044 80.7033 139.981 84.5648C142.237 89.0585 144.289 93.7775 145.202 98.7189C145.941 102.717 145.991 106.866 145.565 110.908ZM163.256 101.557C162.649 101.829 161.953 101.854 161.23 101.7C161.136 97.9832 160.717 94.186 159.913 90.7732C159.545 89.2116 159.096 87.6698 158.57 86.154C159.466 85.8252 160.521 85.7542 161.76 86.0726C165.237 86.967 167.528 88.8904 168.209 93.1329C168.888 97.3748 166.53 100.088 163.256 101.557ZM68.8763 98.1017C68.8763 101.834 65.8411 104.86 62.0964 104.86C58.352 104.86 55.3165 101.834 55.3165 98.1017C55.3165 94.3692 58.352 91.3438 62.0964 91.3438C65.8411 91.3438 68.8763 94.3695 68.8763 98.1017ZM127.151 98.1017C127.151 101.834 124.116 104.86 120.371 104.86C116.626 104.86 113.592 101.834 113.592 98.1017C113.592 94.3692 116.627 91.3438 120.371 91.3438C124.115 91.3438 127.151 94.3695 127.151 98.1017ZM88.3327 110.355C87.9551 111.117 86.5143 111.221 85.1145 110.587C83.7146 109.952 82.8842 108.82 83.2618 108.057C83.639 107.294 85.0799 107.19 86.4801 107.825C87.8802 108.459 88.71 109.592 88.3327 110.355ZM94.4478 110.355C94.8251 111.117 96.2659 111.221 97.6661 110.587C99.0663 109.952 99.896 108.82 99.5188 108.057C99.1412 107.294 97.7007 107.19 96.3005 107.825C94.9003 108.459 94.0702 109.592 94.4478 110.355ZM74.4327 120.606C74.6735 120.692 74.6796 121.279 74.7424 121.494C74.91 122.064 75.206 122.481 75.683 122.843C76.7352 123.64 78.1495 123.954 79.4217 124.205C82.3504 124.784 85.3822 124.879 88.3603 124.869C91.0033 124.859 93.6443 124.725 96.2746 124.467C99.2893 124.172 102.402 123.802 105.274 122.804C106.128 122.507 107.706 122.019 107.827 120.948C107.887 120.42 107.043 118.855 108.258 119.586C109.605 120.397 109.431 122.089 108.596 123.18C107.732 124.307 106.362 125.019 105.086 125.578C100.011 127.801 94.0208 128.317 88.5256 128.205C85.0775 128.134 81.5031 127.792 78.2499 126.583C76.7731 126.034 75.1627 125.246 74.2533 123.908C73.8189 123.268 73.0668 120.749 74.4327 120.606Z" fill="#878687"/>
</svg>
