<svg width="216" height="65" viewBox="0 0 216 65" fill="none" xmlns="http://www.w3.org/2000/svg">
<path d="M74.9159 22.2519H80.0425L85.457 35.4619H85.6874L91.102 22.2519H96.2286V41.9133H92.1965V29.1161H92.0332L86.9451 41.8173H84.1994L79.1112 29.0681H78.948V41.9133H74.9159V22.2519ZM106.239 42.2013C104.748 42.2013 103.458 41.8845 102.37 41.2509C101.289 40.6109 100.454 39.7213 99.8647 38.582C99.2759 37.4364 98.9815 36.1083 98.9815 34.5979C98.9815 33.0746 99.2759 31.7434 99.8647 30.6042C100.454 29.4585 101.289 28.5689 102.37 27.9353C103.458 27.2953 104.748 26.9752 106.239 26.9752C107.731 26.9752 109.017 27.2953 110.099 27.9353C111.187 28.5689 112.025 29.4585 112.614 30.6042C113.203 31.7434 113.497 33.0746 113.497 34.5979C113.497 36.1083 113.203 37.4364 112.614 38.582C112.025 39.7213 111.187 40.6109 110.099 41.2509C109.017 41.8845 107.731 42.2013 106.239 42.2013ZM106.259 39.0332C106.937 39.0332 107.503 38.8412 107.958 38.4572C108.412 38.0668 108.755 37.5356 108.985 36.8636C109.222 36.1915 109.34 35.4267 109.34 34.5691C109.34 33.7115 109.222 32.9466 108.985 32.2746C108.755 31.6026 108.412 31.0714 107.958 30.681C107.503 30.2906 106.937 30.0953 106.259 30.0953C105.574 30.0953 104.998 30.2906 104.53 30.681C104.07 31.0714 103.721 31.6026 103.484 32.2746C103.254 32.9466 103.138 33.7115 103.138 34.5691C103.138 35.4267 103.254 36.1915 103.484 36.8636C103.721 37.5356 104.07 38.0668 104.53 38.4572C104.998 38.8412 105.574 39.0332 106.259 39.0332ZM120.246 33.3883V41.9133H116.156V27.1672H120.054V29.7689H120.227C120.553 28.9113 121.101 28.2329 121.869 27.7337C122.637 27.2281 123.568 26.9752 124.662 26.9752C125.686 26.9752 126.579 27.1992 127.341 27.6473C128.102 28.0953 128.694 28.7353 129.117 29.5673C129.539 30.393 129.75 31.3786 129.75 32.5242V41.9133H125.661V33.2538C125.667 32.3514 125.437 31.6474 124.97 31.1418C124.502 30.6298 123.859 30.3738 123.04 30.3738C122.489 30.3738 122.003 30.4922 121.581 30.729C121.165 30.9658 120.838 31.3114 120.601 31.7658C120.371 32.2138 120.253 32.7546 120.246 33.3883ZM139.636 42.2013C138.145 42.2013 136.856 41.8845 135.767 41.2509C134.686 40.6109 133.851 39.7213 133.262 38.582C132.673 37.4364 132.379 36.1083 132.379 34.5979C132.379 33.0746 132.673 31.7434 133.262 30.6042C133.851 29.4585 134.686 28.5689 135.767 27.9353C136.856 27.2953 138.145 26.9752 139.636 26.9752C141.128 26.9752 142.414 27.2953 143.496 27.9353C144.584 28.5689 145.422 29.4585 146.011 30.6042C146.6 31.7434 146.894 33.0746 146.894 34.5979C146.894 36.1083 146.6 37.4364 146.011 38.582C145.422 39.7213 144.584 40.6109 143.496 41.2509C142.414 41.8845 141.128 42.2013 139.636 42.2013ZM139.656 39.0332C140.334 39.0332 140.9 38.8412 141.355 38.4572C141.809 38.0668 142.152 37.5356 142.382 36.8636C142.619 36.1915 142.737 35.4267 142.737 34.5691C142.737 33.7115 142.619 32.9466 142.382 32.2746C142.152 31.6026 141.809 31.0714 141.355 30.681C140.9 30.2906 140.334 30.0953 139.656 30.0953C138.971 30.0953 138.395 30.2906 137.928 30.681C137.467 31.0714 137.118 31.6026 136.881 32.2746C136.651 32.9466 136.535 33.7115 136.535 34.5691C136.535 35.4267 136.651 36.1915 136.881 36.8636C137.118 37.5356 137.467 38.0668 137.928 38.4572C138.395 38.8412 138.971 39.0332 139.656 39.0332Z" fill="white"/>
<path d="M156.216 42.2013C154.706 42.2013 153.406 41.8813 152.318 41.2413C151.237 40.5949 150.405 39.6989 149.822 38.5532C149.246 37.4076 148.958 36.0891 148.958 34.5979C148.958 33.0874 149.25 31.7626 149.832 30.6234C150.421 29.4777 151.256 28.5849 152.338 27.9449C153.419 27.2985 154.706 26.9752 156.197 26.9752C157.483 26.9752 158.61 27.2088 159.576 27.6761C160.543 28.1433 161.308 28.7993 161.871 29.6441C162.434 30.489 162.744 31.481 162.802 32.6202H158.943C158.834 31.8842 158.546 31.2922 158.079 30.8442C157.618 30.3898 157.013 30.1625 156.264 30.1625C155.631 30.1625 155.077 30.3354 154.603 30.681C154.136 31.0202 153.771 31.5162 153.509 32.169C153.246 32.8218 153.115 33.6123 153.115 34.5403C153.115 35.4811 153.243 36.2811 153.499 36.9404C153.762 37.5996 154.13 38.102 154.603 38.4476C155.077 38.7932 155.631 38.966 156.264 38.966C156.731 38.966 157.151 38.87 157.522 38.678C157.899 38.486 158.21 38.2076 158.453 37.8428C158.703 37.4716 158.866 37.0268 158.943 36.5084H162.802C162.738 37.6348 162.431 38.6268 161.88 39.4845C161.336 40.3357 160.584 41.0013 159.624 41.4813C158.664 41.9613 157.528 42.2013 156.216 42.2013ZM172.083 42.2013C170.592 42.2013 169.302 41.8845 168.214 41.2509C167.133 40.6109 166.297 39.7213 165.708 38.582C165.12 37.4364 164.825 36.1083 164.825 34.5979C164.825 33.0746 165.12 31.7434 165.708 30.6042C166.297 29.4585 167.133 28.5689 168.214 27.9353C169.302 27.2953 170.592 26.9752 172.083 26.9752C173.574 26.9752 174.861 27.2953 175.942 27.9353C177.03 28.5689 177.869 29.4585 178.458 30.6042C179.046 31.7434 179.341 33.0746 179.341 34.5979C179.341 36.1083 179.046 37.4364 178.458 38.582C177.869 39.7213 177.03 40.6109 175.942 41.2509C174.861 41.8845 173.574 42.2013 172.083 42.2013ZM172.102 39.0332C172.781 39.0332 173.347 38.8412 173.802 38.4572C174.256 38.0668 174.598 37.5356 174.829 36.8636C175.066 36.1915 175.184 35.4267 175.184 34.5691C175.184 33.7115 175.066 32.9466 174.829 32.2746C174.598 31.6026 174.256 31.0714 173.802 30.681C173.347 30.2906 172.781 30.0953 172.102 30.0953C171.417 30.0953 170.841 30.2906 170.374 30.681C169.913 31.0714 169.565 31.6026 169.328 32.2746C169.097 32.9466 168.982 33.7115 168.982 34.5691C168.982 35.4267 169.097 36.1915 169.328 36.8636C169.565 37.5356 169.913 38.0668 170.374 38.4572C170.841 38.8412 171.417 39.0332 172.102 39.0332ZM182 41.9133V27.1672H186.09V41.9133H182ZM184.055 25.2664C183.447 25.2664 182.925 25.0648 182.49 24.6616C182.061 24.252 181.847 23.7623 181.847 23.1927C181.847 22.6295 182.061 22.1463 182.49 21.7431C182.925 21.3335 183.447 21.1287 184.055 21.1287C184.663 21.1287 185.181 21.3335 185.61 21.7431C186.045 22.1463 186.263 22.6295 186.263 23.1927C186.263 23.7623 186.045 24.252 185.61 24.6616C185.181 25.0648 184.663 25.2664 184.055 25.2664ZM193.456 33.3883V41.9133H189.366V27.1672H193.264V29.7689H193.437C193.763 28.9113 194.31 28.2329 195.078 27.7337C195.846 27.2281 196.777 26.9752 197.872 26.9752C198.896 26.9752 199.789 27.1992 200.55 27.6473C201.312 28.0953 201.904 28.7353 202.326 29.5673C202.749 30.393 202.96 31.3786 202.96 32.5242V41.9133H198.87V33.2538C198.877 32.3514 198.646 31.6474 198.179 31.1418C197.712 30.6298 197.069 30.3738 196.249 30.3738C195.699 30.3738 195.213 30.4922 194.79 30.729C194.374 30.9658 194.048 31.3114 193.811 31.7658C193.581 32.2138 193.462 32.7546 193.456 33.3883Z" fill="#6BDAB0"/>
<path d="M60.5318 34.071C60.4372 30.4694 57.5888 27.929 54.605 28.5222C54.4077 28.5614 54.2252 28.6048 54.056 28.6528C53.2523 26.8297 52.3715 25.0208 51.2005 23.4841C49.7829 21.6243 47.9956 19.6815 46.1218 18.4542C44.4661 17.3695 42.6372 16.6638 40.7737 16.1878C39.0698 15.7523 37.2706 15.9676 35.6055 15.8221C34.6602 15.7395 33.6592 15.8767 32.8226 15.369C32.1196 14.9425 32.0111 14.6608 32.651 13C31.4805 13.9207 30.9637 14.6131 30.7066 15.6613C30.6187 16.0194 30.1622 14.5339 30.6106 13.4977C29.6647 14.032 29.2457 15.4541 29.0905 15.4713C28.7498 15.5097 28.5777 14.1756 28.5264 13.3072C27.8101 14.1473 27.6543 15.91 27.6543 15.91C27.4775 15.9869 26.8367 14.1088 27.1926 13.1902C26.1488 13.9619 26.4917 15.9908 26.1536 16.1877C25.7538 16.4207 25.9109 14.2865 23.4279 13.3654V13.3656C24.4012 14.7959 24.5813 15.3773 23.9352 16.3643C23.8003 16.5706 23.6634 16.7751 23.5246 16.9779C22.3705 18.6614 20.755 20.0361 19.5488 21.6716C18.3731 23.2661 17.2273 24.922 16.3681 26.7601C16.0758 27.3852 15.8082 28.025 15.5662 28.6774C15.3558 28.6163 15.1434 28.5645 14.9295 28.5222C11.9456 27.9291 9.09725 30.4694 9.00264 34.0709C8.91175 37.5319 11.1788 40.1982 14.2164 39.9708C14.403 41.7788 14.8369 43.8767 15.5473 45.4182C16.353 47.1668 17.428 48.4519 18.7791 49.6878C19.6624 50.4959 20.6928 51.1087 21.7544 51.5595C23.9168 52.4778 26.2934 52.7639 28.5774 53.1386C31.0049 53.5368 33.4607 53.814 35.9132 53.7819C38.147 53.7528 40.38 53.4504 42.5821 53.0214C44.5075 52.6465 46.2413 52.305 48.0198 51.3838C49.5059 50.6141 50.825 49.5516 51.9698 48.2254C53.2476 46.7455 54.4644 45.2695 55.2016 43.3707C55.6174 42.2995 55.8783 41.1404 56.0069 39.9724C58.6915 39.7813 60.6158 37.2647 60.5318 34.071ZM14.6265 31.9432C14.3082 33.6027 14.0945 35.4595 14.0837 37.0961C13.7455 37.275 13.406 37.3245 13.1279 37.1817C12.1468 36.6782 11.4403 35.7484 11.644 34.2946C11.848 32.8405 12.5343 32.1813 13.5762 31.8748C13.9911 31.7528 14.3397 31.7933 14.6265 31.9432ZM51.4157 40.3864C51.309 41.5436 51.1437 42.7354 50.6902 43.7778C50.0678 45.2088 49.0662 46.3877 47.9911 47.4122C46.9322 48.421 45.6517 49.1223 44.3635 49.6868C42.7867 50.3777 41.233 50.7271 39.5584 50.9809C37.3879 51.3099 35.179 51.3759 32.9929 51.229C30.9052 51.0886 28.7932 50.8395 26.79 50.1537C25.2976 49.643 23.8573 49.0235 22.5972 47.9789C21.5453 47.1073 20.5358 46.0334 19.898 44.7411C19.1023 43.1287 18.6105 41.2551 18.5559 39.4058C18.4842 36.9816 19.0826 34.7833 19.9238 32.5553C20.5322 30.9433 21.4492 29.4568 22.5354 28.2128C23.4797 27.1317 24.5989 26.0128 25.8363 25.4318C27.0516 24.8612 28.4045 24.5919 29.7178 24.6459C30.8518 24.6921 31.9404 25.0254 32.993 25.5092C33.7161 25.842 34.5753 26.5464 35.0984 26.8937C35.748 26.5522 36.4312 25.7107 37.2154 25.361C38.4987 24.789 39.9007 24.4654 41.2782 24.4923C42.4425 24.5155 43.5645 24.784 44.6367 25.3025C45.7695 25.8504 46.6911 26.69 47.566 27.677C48.4888 28.7181 49.1621 30.0346 49.7426 31.358C50.4183 32.8981 51.0334 34.5155 51.3068 36.209C51.5282 37.5793 51.5433 39.0012 51.4157 40.3863V40.3864ZM56.7161 37.1817C56.5343 37.275 56.3257 37.2834 56.109 37.2307C56.0809 35.9569 55.9553 34.6555 55.7145 33.4858C55.6042 32.9506 55.4698 32.4222 55.3121 31.9027C55.5805 31.79 55.8968 31.7657 56.2678 31.8748C57.3097 32.1813 57.996 32.8405 58.2 34.2946C58.4037 35.7484 57.6971 36.6782 56.7161 37.1817ZM28.4382 35.9975C28.4382 37.2767 27.5288 38.3136 26.4068 38.3136C25.2849 38.3136 24.3754 37.2767 24.3754 35.9975C24.3754 34.7183 25.2849 33.6814 26.4068 33.6814C27.5288 33.6814 28.4382 34.7184 28.4382 35.9975ZM45.8985 35.9975C45.8985 37.2767 44.989 38.3136 43.867 38.3136C42.745 38.3136 41.8357 37.2767 41.8357 35.9975C41.8357 34.7183 42.7451 33.6814 43.867 33.6814C44.9889 33.6814 45.8984 34.7184 45.8984 35.9975H45.8985ZM34.2677 40.197C34.1546 40.4583 33.7229 40.494 33.3034 40.2765C32.884 40.059 32.6352 39.671 32.7483 39.4094C32.8614 39.148 33.2931 39.1124 33.7126 39.3298C34.1321 39.5473 34.3807 39.9354 34.2677 40.197ZM36.0999 40.197C36.2129 40.4583 36.6446 40.494 37.0641 40.2765C37.4837 40.059 37.7323 39.671 37.6192 39.4094C37.5061 39.148 37.0745 39.1124 36.655 39.3298C36.2355 39.5473 35.9868 39.9354 36.0999 40.197ZM30.103 43.7104C30.1751 43.7398 30.1769 43.9411 30.1958 44.0145C30.246 44.2101 30.3347 44.3529 30.4776 44.4769C30.7928 44.7502 31.2166 44.8577 31.5978 44.9438C32.4753 45.1423 33.3837 45.1749 34.2759 45.1713C35.0678 45.1678 35.8591 45.1218 36.6472 45.0336C37.5505 44.9326 38.4831 44.8057 39.3436 44.4636C39.5995 44.3619 40.0724 44.1947 40.1086 43.8276C40.1265 43.6466 39.8738 43.1103 40.2375 43.3607C40.6414 43.6388 40.589 44.2185 40.3389 44.5923C40.0802 44.9788 39.6698 45.2226 39.2873 45.4143C37.7668 46.1763 35.972 46.3531 34.3255 46.3146C33.2924 46.2905 32.2214 46.1732 31.2467 45.7588C30.8042 45.5706 30.3217 45.3004 30.0492 44.8418C29.9191 44.6227 29.6937 43.7594 30.103 43.7104Z" fill="white"/>
</svg>
